<mxfile host="app.diagrams.net" agent="Mozilla/5.0 (Windows NT 10.0; Win64; x64) AppleWebKit/537.36 (KHTML, like Gecko) Chrome/127.0.0.0 Safari/537.36" version="24.7.6">
  <diagram name="Page-1" id="VN77dshAX4Pa72pSYfY_">
    <mxGraphModel dx="954" dy="592" grid="1" gridSize="10" guides="1" tooltips="1" connect="1" arrows="1" fold="1" page="1" pageScale="1" pageWidth="827" pageHeight="1169" math="0" shadow="0">
      <root>
        <mxCell id="0" />
        <mxCell id="1" parent="0" />
        <mxCell id="1a3KTrQ9JYbiF1-fIL3c-3" value="" style="edgeStyle=orthogonalEdgeStyle;rounded=0;orthogonalLoop=1;jettySize=auto;html=1;" edge="1" parent="1" source="1a3KTrQ9JYbiF1-fIL3c-1" target="1a3KTrQ9JYbiF1-fIL3c-2">
          <mxGeometry relative="1" as="geometry" />
        </mxCell>
        <mxCell id="1a3KTrQ9JYbiF1-fIL3c-5" value="" style="edgeStyle=orthogonalEdgeStyle;rounded=0;orthogonalLoop=1;jettySize=auto;html=1;" edge="1" parent="1" source="1a3KTrQ9JYbiF1-fIL3c-1" target="1a3KTrQ9JYbiF1-fIL3c-4">
          <mxGeometry relative="1" as="geometry" />
        </mxCell>
        <mxCell id="1a3KTrQ9JYbiF1-fIL3c-1" value="Template Repositories" style="rounded=0;whiteSpace=wrap;html=1;" vertex="1" parent="1">
          <mxGeometry x="170" y="90" width="120" height="60" as="geometry" />
        </mxCell>
        <mxCell id="1a3KTrQ9JYbiF1-fIL3c-7" value="" style="edgeStyle=orthogonalEdgeStyle;rounded=0;orthogonalLoop=1;jettySize=auto;html=1;" edge="1" parent="1" source="1a3KTrQ9JYbiF1-fIL3c-2" target="1a3KTrQ9JYbiF1-fIL3c-6">
          <mxGeometry relative="1" as="geometry" />
        </mxCell>
        <mxCell id="1a3KTrQ9JYbiF1-fIL3c-2" value="Settings-&amp;gt;General" style="rounded=0;whiteSpace=wrap;html=1;" vertex="1" parent="1">
          <mxGeometry x="370" y="90" width="120" height="60" as="geometry" />
        </mxCell>
        <mxCell id="1a3KTrQ9JYbiF1-fIL3c-4" value="Allow creating different repository with existing tempate directory structure" style="whiteSpace=wrap;html=1;rounded=0;" vertex="1" parent="1">
          <mxGeometry x="170" y="230" width="120" height="60" as="geometry" />
        </mxCell>
        <mxCell id="1a3KTrQ9JYbiF1-fIL3c-6" value="Enable/Disable&lt;div&gt;Template Repository&lt;/div&gt;" style="whiteSpace=wrap;html=1;rounded=0;fillColor=#d5e8d4;strokeColor=#82b366;" vertex="1" parent="1">
          <mxGeometry x="370" y="230" width="120" height="60" as="geometry" />
        </mxCell>
      </root>
    </mxGraphModel>
  </diagram>
</mxfile>
